<svg width="20" height="20" viewBox="0 0 20 20" fill="none" xmlns="http://www.w3.org/2000/svg">
<path d="M5.54805 5.54998C6.00203 5.09524 6.31103 4.51614 6.43599 3.88585C6.56096 3.25556 6.49628 2.60237 6.25014 2.00882C6.004 1.41527 5.58743 0.908011 5.05309 0.551134C4.51875 0.194258 3.89061 0.00378418 3.24805 0.00378418C2.60549 0.00378418 1.97735 0.194258 1.443 0.551134C0.908662 0.908011 0.492098 1.41527 0.245955 2.00882C-0.00018765 2.60237 -0.0648628 3.25556 0.0601029 3.88585C0.185069 4.51614 0.494066 5.09524 0.948048 5.54998C1.24991 5.85234 1.60842 6.09221 2.00308 6.25588C2.39774 6.41954 2.8208 6.50378 3.24805 6.50378C3.6753 6.50378 4.09835 6.41954 4.49301 6.25588C4.88767 6.09221 5.24619 5.85234 5.54805 5.54998ZM18.548 13.95C18.0933 13.496 17.5142 13.187 16.8839 13.062C16.2536 12.9371 15.6004 13.0017 15.0069 13.2479C14.4133 13.494 13.9061 13.9106 13.5492 14.4449C13.1923 14.9793 13.0019 15.6074 13.0019 16.25C13.0019 16.8925 13.1923 17.5207 13.5492 18.055C13.9061 18.5894 14.4133 19.0059 15.0069 19.2521C15.6004 19.4982 16.2536 19.5629 16.8839 19.4379C17.5142 19.313 18.0933 19.004 18.548 18.55C18.8504 18.2481 19.0903 17.8896 19.2539 17.4949C19.4176 17.1003 19.5019 16.6772 19.5019 16.25C19.5019 15.8227 19.4176 15.3997 19.2539 15.005C19.0903 14.6104 18.8504 14.2518 18.548 13.95ZM18.448 2.19798L17.3 1.04998C17.1492 0.898677 16.9699 0.778634 16.7726 0.696726C16.5753 0.614819 16.3637 0.572657 16.15 0.572657C15.9364 0.572657 15.7248 0.614819 15.5275 0.696726C15.3301 0.778634 15.1509 0.898677 15 1.04998L1.05105 15.003C0.899749 15.1538 0.779705 15.3331 0.697798 15.5304C0.615891 15.7278 0.573729 15.9393 0.573729 16.153C0.573729 16.3666 0.615891 16.5782 0.697798 16.7755C0.779705 16.9729 0.899749 17.1521 1.05105 17.303L2.20005 18.45C2.35091 18.6013 2.53015 18.7213 2.72749 18.8032C2.92482 18.8851 3.13639 18.9273 3.35005 18.9273C3.56371 18.9273 3.77527 18.8851 3.97261 18.8032C4.16995 18.7213 4.34918 18.6013 4.50005 18.45L18.449 4.49698C18.6003 4.34611 18.7204 4.16688 18.8023 3.96954C18.8842 3.7722 18.9264 3.56064 18.9264 3.34698C18.9264 3.13332 18.8842 2.92175 18.8023 2.72441C18.7204 2.52708 18.6003 2.34784 18.449 2.19698L18.448 2.19798Z" fill="#06C167"/>
</svg>
